<?xml version="1.0" standalone="no"?>
<!DOCTYPE svg PUBLIC "-//W3C//DTD SVG 20010904//EN"
 "http://www.w3.org/TR/2001/REC-SVG-20010904/DTD/svg10.dtd">
<svg version="1.0" xmlns="http://www.w3.org/2000/svg"
 width="512.000000pt" height="512.000000pt" viewBox="0 0 512.000000 512.000000"
 preserveAspectRatio="xMidYMid meet">

<g transform="translate(0.000000,512.000000) scale(0.100000,-0.100000)"
fill="#000000" stroke="none">
<path d="M3273 4994 c-20 -10 -48 -40 -72 -78 -60 -96 -74 -102 -208 -84 -114
14 -188 1 -236 -42 -31 -28 -32 -30 -37 -137 -3 -59 -9 -114 -14 -122 -5 -7
-41 -28 -80 -46 -39 -18 -79 -41 -89 -52 -32 -36 -55 -125 -66 -258 -22 -254
-105 -678 -173 -882 -22 -67 -60 -157 -84 -199 -79 -139 -96 -157 -469 -517
l-100 -96 18 -68 c10 -37 79 -220 153 -407 164 -409 200 -516 253 -756 51
-228 75 -306 161 -535 77 -203 96 -268 136 -444 15 -68 35 -133 44 -144 44
-53 111 25 195 226 79 188 90 209 160 302 128 171 142 230 106 448 -12 70 -21
161 -21 202 0 69 3 80 45 157 96 178 126 247 165 393 23 83 57 184 76 226 19
42 34 85 34 96 0 24 -21 44 -77 72 -49 24 -48 22 -28 147 18 110 60 256 150
512 66 189 67 197 76 330 6 108 14 159 38 237 54 175 58 303 20 570 -5 39 -14
124 -19 190 -11 148 -2 200 69 378 64 159 81 250 61 309 -27 77 -111 109 -187
72z m92 -107 c9 -35 -19 -142 -76 -289 -76 -197 -76 -195 -39 -554 35 -348 34
-375 -21 -565 -22 -76 -32 -139 -39 -234 -8 -117 -13 -144 -55 -265 -130 -375
-164 -499 -181 -663 -8 -80 9 -118 65 -143 l39 -17 -24 -53 c-13 -29 -37 -104
-53 -166 -51 -192 -62 -219 -174 -430 l-57 -108 0 -92 c0 -51 9 -144 20 -207
35 -201 27 -237 -90 -393 -55 -73 -90 -132 -115 -194 -20 -49 -50 -120 -68
-158 l-32 -69 -37 144 c-20 79 -70 232 -111 339 -84 220 -101 276 -152 510
-49 219 -94 358 -235 710 -65 162 -131 332 -147 377 l-28 82 202 196 c111 108
230 232 263 276 70 94 137 226 179 356 63 194 139 582 167 861 21 206 32 231
111 261 108 40 143 99 143 242 0 75 0 77 30 89 22 9 57 10 132 4 191 -16 216
-5 310 135 32 47 64 55 73 18z"/>
</g>
</svg>
